<?xml version="1.0" encoding="utf-8"?>
<svg width="200" height="200" viewBox="0 0 200 200" xmlns="http://www.w3.org/2000/svg">
  <line class="cls-1" x1="120.929" y1="119.197" x2="181.74" y2="179.507" style="fill: rgb(0, 198, 255);"/>
  <path class="cls-1" d="M 181.74 192.926 C 178.1 192.932 174.608 191.518 172.035 188.998 L 100.218 118.758 C 92.387 111.792 95.204 99.148 105.287 95.999 C 110.412 94.399 116.021 95.868 119.641 99.76 L 191.452 169.994 C 198.906 177.345 195.429 189.83 185.194 192.468 C 184.069 192.759 182.911 192.908 181.747 192.913 Z" style="fill: rgb(0, 198, 255);"/>
  <circle class="cls-1" cx="163.82" cy="159.27" r="126.56" transform="matrix(0.723682, 0, 0, 0.707784, -20.029682, -18.439137)" style="fill: rgb(0, 198, 255);"/>
  <circle class="cls-2" cx="163.82" cy="159.27" r="94.77" transform="matrix(0.723682, 0, 0, 0.707784, -20.029682, -18.439137)" style="fill: rgb(0, 88, 161);"/>
  <path class="cls-3" d="M 83.37 111.234 C 81.529 111.236 79.764 110.52 78.464 109.245 L 57.998 89.222 C 55.285 86.576 55.285 82.278 57.998 79.631 L 78.464 59.609 C 82.31 55.982 88.727 57.789 90.015 62.86 C 90.591 65.127 89.934 67.524 88.277 69.205 L 72.71 84.423 L 88.277 99.648 C 92.054 103.343 90.324 109.651 85.163 111.003 C 84.579 111.156 83.976 111.234 83.37 111.234 Z" style="fill: rgb(255, 255, 255);"/>
  <path class="cls-3" d="M 113.671 130.953 C 108.328 130.935 105.008 125.268 107.696 120.752 C 107.996 120.246 108.362 119.78 108.786 119.366 L 124.352 104.15 L 108.786 88.925 C 105.078 85.162 106.925 78.886 112.111 77.627 C 114.429 77.064 116.879 77.706 118.598 79.327 L 139.065 99.35 C 141.778 102 141.778 106.299 139.065 108.948 L 118.598 128.964 C 117.294 130.244 115.519 130.961 113.671 130.953 Z" style="fill: rgb(255, 255, 255);"/>
</svg>