<?xml version="1.0" encoding="UTF-8"?><svg xmlns="http://www.w3.org/2000/svg" id="canvas_22" width="560" height="376" style="width: 560px; height: 376px;" version="1.1" viewBox="0 0 560 376"><path stroke="none" opacity="1" fill-opacity="1" d="M 0,0 l 560,0 l 0,376 l-560 0 z" stroke-opacity="1" transform="matrix(1,0,0,1,0,0)" width="560" height="376" stroke-width="1" fill="#fff"></path><defs id="defs_3"></defs><g stroke="none" fill="none" opacity="1" fill-opacity="1" stroke-opacity="1" transform="matrix(1,0,0,1,0,0)"><g stroke="none" fill="none" opacity="1" fill-opacity="1" stroke-opacity="1" transform="matrix(1,0,0,1,0,0)"></g><g stroke="none" fill="none" opacity="1" fill-opacity="1" stroke-opacity="1" transform="matrix(1,0,0,1,0,0)"><text paint-order="stroke" style="stroke-linecap:butt; stroke-linejoin:miter;" alignment-baseline="auto" text-anchor="left" opacity="1" fill-opacity="1" stroke-opacity="1" transform="matrix(1,0,0,1,0,0)" x="24" y="42" stroke-width="1" font-size="18" font-family="PingFang SC" font-style="normal" font-weight="normal" font-variant="normal" fill="black" font="normal normal normal 18px PingFang SC">10月份累计发现漏洞统计</text></g><g stroke="none" fill="none" opacity="1" fill-opacity="1" stroke-opacity="1" transform="matrix(1,0,0,1,0,0)"><path stroke="none" d="M 0,66.5 l 560,0 l 0,309.5 l-560 0 z" opacity="1" fill-opacity="0" stroke-opacity="1" transform="matrix(1,0,0,1,0,0)" width="560" height="309.5" stroke-width="1" fill="#ffffff"></path><g stroke="none" fill="none" opacity="1" fill-opacity="1" stroke-opacity="1" transform="matrix(1,0,0,1,0,0)"></g><g stroke="none" fill="none" opacity="1" fill-opacity="1" stroke-opacity="1" transform="matrix(1,0,0,1,0,0)"></g></g><g stroke="none" fill="none" opacity="1" fill-opacity="1" stroke-opacity="1" transform="matrix(1,0,0,1,0,0)"><path stroke="none" d="M 24,78.5 l 453.5,0 l 0,273.5 l-453.5 0 z" opacity="1" fill-opacity="0" stroke-opacity="1" transform="matrix(1,0,0,1,0,0)" width="453.5" height="273.5" stroke-width="1" fill="#ffffff"></path><g stroke="none" fill="none" opacity="1" fill-opacity="1" stroke-opacity="1" transform="matrix(1,0,0,1,0,0)"><g stroke="none" fill="none" opacity="1" fill-opacity="1" stroke-opacity="1" transform="matrix(1,0,0,1,0,0)"><path opacity="1" fill-opacity="0.85" stroke-opacity="1" transform="matrix(1,0,0,1,0,0)" d="M 250.75 145.2339980308A 70.01600196919998 70.01600196919998 0 0 1 300.258789783992 165.74121021600803L 328.1074804693736 137.89251953062637A 109.3999980308 109.3999980308 0 0 0 250.75 105.8500019692L 250.75 145.2339980308z" stroke-width="1" fill="#f05534" stroke="white"></path><path opacity="1" fill-opacity="0.85" stroke-opacity="1" transform="matrix(1,0,0,1,0,0)" d="M 300.258789783992 165.74121021600803A 70.01600196920003 70.01600196920003 0 0 1 250.75 285.26600196920003L 250.75 324.6499980308A 109.3999980308 109.3999980308 0 0 0 328.1074804693736 137.89251953062637L 300.258789783992 165.74121021600803z" stroke-width="1" fill="#f6bd16" stroke="white"></path><path opacity="1" fill-opacity="0.85" stroke-opacity="1" transform="matrix(1,0,0,1,0,0)" d="M 250.75 285.26600196920003A 70.0160019692 70.0160019692 0 0 1 250.75 145.2339980308L 250.74999999999997 105.8500019692A 109.39999803080002 109.39999803080002 0 0 0 250.75 324.6499980308L 250.75 285.26600196920003z" stroke-width="1" fill="#6f9beb" stroke="white"></path></g></g></g><g stroke="none" fill="none" opacity="1" fill-opacity="1" stroke-opacity="1" transform="matrix(1,0,0,1,0,0)"><g stroke="none" fill="none" opacity="1" fill-opacity="1" stroke-opacity="1" transform="matrix(1,0,0,1,0,0)"></g><g stroke="none" fill="none" opacity="1" fill-opacity="1" stroke-opacity="1" transform="matrix(1,0,0,1,0,0)"></g><g stroke="none" fill="none" opacity="1" fill-opacity="1" stroke-opacity="1" transform="matrix(1,0,0,1,493.5,191.875)"><g stroke="none" fill="none" opacity="1" fill-opacity="1" stroke-opacity="1" transform="matrix(1,0,0,1,0,0)"><g stroke="none" fill="none" opacity="1" fill-opacity="1" stroke-opacity="1" transform="matrix(1,0,0,1,0,0)"><path stroke="none" d="M 4.5 15m -4.5 0a 4.5 4.5 0 1 0 9 0a 4.5 4.5 0 1 0 -9 0" opacity="1" fill-opacity="0.85" stroke-opacity="1" transform="matrix(1,0,0,1,0,0)" stroke-width="0" fill="#f05534"></path><text paint-order="stroke" style="stroke-linecap:butt; stroke-linejoin:miter;" alignment-baseline="auto" text-anchor="left" opacity="1" fill-opacity="1" stroke-opacity="1" transform="matrix(1,0,0,1,0,0)" x="17" y="20.75" stroke-width="1" font-size="12" font-family="&quot;-apple-system&quot;, BlinkMacSystemFont, &quot;Segoe UI&quot;, Roboto,&quot;Helvetica Neue&quot;, Helvetica, &quot;PingFang SC&quot;, &quot;Hiragino Sans GB&quot;, &quot;Microsoft YaHei&quot;,SimSun, &quot;sans-serif&quot;" font-style="normal" font-weight="normal" font-variant="normal" fill="#8C8C8C" font="normal normal normal 12px &quot;-apple-system&quot;, BlinkMacSystemFont, &quot;Segoe UI&quot;, Roboto,&quot;Helvetica Neue&quot;, Helvetica, &quot;PingFang SC&quot;, &quot;Hiragino Sans GB&quot;, &quot;Microsoft YaHei&quot;,SimSun, &quot;sans-serif&quot;">高危</text><path stroke="none" d="M 0,8.5 l 41.5,0 l 0,13 l-41.5 0 z" opacity="1" fill-opacity="0" stroke-opacity="1" transform="matrix(1,0,0,1,0,0)" width="41.5" height="13" stroke-width="1" fill="#fff"></path></g><g stroke="none" fill="none" opacity="1" fill-opacity="1" stroke-opacity="1" transform="matrix(1,0,0,1,0,0)"><path stroke="none" d="M 4.5 37.25m -4.5 0a 4.5 4.5 0 1 0 9 0a 4.5 4.5 0 1 0 -9 0" opacity="1" fill-opacity="0.85" stroke-opacity="1" transform="matrix(1,0,0,1,0,0)" stroke-width="0" fill="#f6bd16"></path><text paint-order="stroke" style="stroke-linecap:butt; stroke-linejoin:miter;" alignment-baseline="auto" text-anchor="left" opacity="1" fill-opacity="1" stroke-opacity="1" transform="matrix(1,0,0,1,0,0)" x="17" y="43" stroke-width="1" font-size="12" font-family="&quot;-apple-system&quot;, BlinkMacSystemFont, &quot;Segoe UI&quot;, Roboto,&quot;Helvetica Neue&quot;, Helvetica, &quot;PingFang SC&quot;, &quot;Hiragino Sans GB&quot;, &quot;Microsoft YaHei&quot;,SimSun, &quot;sans-serif&quot;" font-style="normal" font-weight="normal" font-variant="normal" fill="#8C8C8C" font="normal normal normal 12px &quot;-apple-system&quot;, BlinkMacSystemFont, &quot;Segoe UI&quot;, Roboto,&quot;Helvetica Neue&quot;, Helvetica, &quot;PingFang SC&quot;, &quot;Hiragino Sans GB&quot;, &quot;Microsoft YaHei&quot;,SimSun, &quot;sans-serif&quot;">中危</text><path stroke="none" d="M 0,30.75 l 41.5,0 l 0,13 l-41.5 0 z" opacity="1" fill-opacity="0" stroke-opacity="1" transform="matrix(1,0,0,1,0,0)" width="41.5" height="13" stroke-width="1" fill="#fff"></path></g><g stroke="none" fill="none" opacity="1" fill-opacity="1" stroke-opacity="1" transform="matrix(1,0,0,1,0,0)"><path stroke="none" d="M 4.5 59.5m -4.5 0a 4.5 4.5 0 1 0 9 0a 4.5 4.5 0 1 0 -9 0" opacity="1" fill-opacity="0.85" stroke-opacity="1" transform="matrix(1,0,0,1,0,0)" stroke-width="0" fill="#6f9beb"></path><text paint-order="stroke" style="stroke-linecap:butt; stroke-linejoin:miter;" alignment-baseline="auto" text-anchor="left" opacity="1" fill-opacity="1" stroke-opacity="1" transform="matrix(1,0,0,1,0,0)" x="17" y="65.25" stroke-width="1" font-size="12" font-family="&quot;-apple-system&quot;, BlinkMacSystemFont, &quot;Segoe UI&quot;, Roboto,&quot;Helvetica Neue&quot;, Helvetica, &quot;PingFang SC&quot;, &quot;Hiragino Sans GB&quot;, &quot;Microsoft YaHei&quot;,SimSun, &quot;sans-serif&quot;" font-style="normal" font-weight="normal" font-variant="normal" fill="#8C8C8C" font="normal normal normal 12px &quot;-apple-system&quot;, BlinkMacSystemFont, &quot;Segoe UI&quot;, Roboto,&quot;Helvetica Neue&quot;, Helvetica, &quot;PingFang SC&quot;, &quot;Hiragino Sans GB&quot;, &quot;Microsoft YaHei&quot;,SimSun, &quot;sans-serif&quot;">低危</text><path stroke="none" d="M 0,53 l 41.5,0 l 0,13 l-41.5 0 z" opacity="1" fill-opacity="0" stroke-opacity="1" transform="matrix(1,0,0,1,0,0)" width="41.5" height="13" stroke-width="1" fill="#fff"></path></g></g></g><g stroke="none" fill="none" opacity="1" fill-opacity="1" stroke-opacity="1" transform="matrix(1,0,0,1,0,0)"><g stroke="none" fill="none" opacity="1" fill-opacity="1" stroke-opacity="1" transform="matrix(1,0,0,1,0,0)"><text paint-order="stroke" style="stroke-linecap:butt; stroke-linejoin:miter;" alignment-baseline="auto" text-anchor="end" opacity="1" fill-opacity="0.65" stroke-opacity="1" transform="matrix(1,0,0,1,0,0)" x="121.35" y="229.25000000000003" stroke-width="1" font-size="12" font-family="sans-serif" font-style="normal" font-weight="700" font-variant="normal" fill="#000" font="normal normal 700 12px sans-serif">8</text><text paint-order="stroke" style="stroke-linecap:butt; stroke-linejoin:miter;" alignment-baseline="auto" text-anchor="end" opacity="1" fill-opacity="0.65" stroke-opacity="1" transform="matrix(1,0,0,1,0,0)" x="121.35" y="209.25000000000003" stroke-width="1" font-size="12" font-family="sans-serif" font-style="normal" font-weight="normal" font-variant="normal" fill="#000" font="normal normal normal 12px sans-serif">低危</text></g><path fill="none" opacity="1" fill-opacity="1" stroke-opacity="0.45" transform="matrix(1,0,0,1,0,0)" d="M 141.35 215.25L 126.35 215.25000000000003L 125.85 215.25000000000003" stroke-width="0.5" stroke="#000"></path><g stroke="none" fill="none" opacity="1" fill-opacity="1" stroke-opacity="1" transform="matrix(1,0,0,1,0,0)"><text paint-order="stroke" style="stroke-linecap:butt; stroke-linejoin:miter;" alignment-baseline="auto" text-anchor="left" opacity="1" fill-opacity="0.65" stroke-opacity="1" transform="matrix(1,0,0,1,0,0)" x="380.15" y="114.31938615559592" stroke-width="1" font-size="12" font-family="sans-serif" font-style="normal" font-weight="700" font-variant="normal" fill="#000" font="normal normal 700 12px sans-serif">2</text><text paint-order="stroke" style="stroke-linecap:butt; stroke-linejoin:miter;" alignment-baseline="auto" text-anchor="left" opacity="1" fill-opacity="0.65" stroke-opacity="1" transform="matrix(1,0,0,1,0,0)" x="380.15" y="94.31938615559592" stroke-width="1" font-size="12" font-family="sans-serif" font-style="normal" font-weight="normal" font-variant="normal" fill="#000" font="normal normal normal 12px sans-serif">高危</text></g><path fill="none" opacity="1" fill-opacity="1" stroke-opacity="0.45" transform="matrix(1,0,0,1,0,0)" d="M 292.61556750074084 114.17757914326522L 298.3558189862172 100.31938615559592L 375.65 100.31938615559592" stroke-width="0.5" stroke="#000"></path><g stroke="none" fill="none" opacity="1" fill-opacity="1" stroke-opacity="1" transform="matrix(1,0,0,1,0,0)"><text paint-order="stroke" style="stroke-linecap:butt; stroke-linejoin:miter;" alignment-baseline="auto" text-anchor="left" opacity="1" fill-opacity="0.65" stroke-opacity="1" transform="matrix(1,0,0,1,0,0)" x="380.15" y="276.8558189862172" stroke-width="1" font-size="12" font-family="sans-serif" font-style="normal" font-weight="700" font-variant="normal" fill="#000" font="normal normal 700 12px sans-serif">6</text><text paint-order="stroke" style="stroke-linecap:butt; stroke-linejoin:miter;" alignment-baseline="auto" text-anchor="left" opacity="1" fill-opacity="0.65" stroke-opacity="1" transform="matrix(1,0,0,1,0,0)" x="380.15" y="256.8558189862172" stroke-width="1" font-size="12" font-family="sans-serif" font-style="normal" font-weight="normal" font-variant="normal" fill="#000" font="normal normal normal 12px sans-serif">中危</text></g><path fill="none" opacity="1" fill-opacity="1" stroke-opacity="0.45" transform="matrix(1,0,0,1,0,0)" d="M 351.82242085673477 257.11556750074084L 365.6806138444041 262.8558189862172L 375.65 262.8558189862172" stroke-width="0.5" stroke="#000"></path></g></g></g></svg>